<mxfile host="app.diagrams.net" agent="Mozilla/5.0 (Windows NT 10.0; Win64; x64) AppleWebKit/537.36 (KHTML, like Gecko) Chrome/131.0.0.0 Safari/537.36" version="24.8.6">
  <diagram name="1 oldal" id="q9EltI9LQuVcuLqrENjw">
    <mxGraphModel dx="3023" dy="1181" grid="1" gridSize="10" guides="1" tooltips="1" connect="1" arrows="1" fold="1" page="1" pageScale="1" pageWidth="827" pageHeight="1169" math="0" shadow="0">
      <root>
        <mxCell id="0" />
        <mxCell id="1" parent="0" />
        <mxCell id="950wtDZRjI_2q_y0SgnF-1" value="kezdőképernyő" style="rounded=0;whiteSpace=wrap;html=1;" vertex="1" parent="1">
          <mxGeometry x="354" y="80" width="120" height="60" as="geometry" />
        </mxCell>
        <mxCell id="950wtDZRjI_2q_y0SgnF-2" value="" style="endArrow=classic;html=1;rounded=0;entryX=0.75;entryY=0;entryDx=0;entryDy=0;exitX=0.117;exitY=1.017;exitDx=0;exitDy=0;exitPerimeter=0;" edge="1" parent="1" source="950wtDZRjI_2q_y0SgnF-1" target="950wtDZRjI_2q_y0SgnF-4">
          <mxGeometry width="50" height="50" relative="1" as="geometry">
            <mxPoint x="354" y="160" as="sourcePoint" />
            <mxPoint x="310" y="210" as="targetPoint" />
          </mxGeometry>
        </mxCell>
        <mxCell id="950wtDZRjI_2q_y0SgnF-3" value="" style="endArrow=classic;html=1;rounded=0;entryX=0.5;entryY=0;entryDx=0;entryDy=0;exitX=0.883;exitY=1;exitDx=0;exitDy=0;exitPerimeter=0;" edge="1" parent="1" source="950wtDZRjI_2q_y0SgnF-1" target="950wtDZRjI_2q_y0SgnF-5">
          <mxGeometry width="50" height="50" relative="1" as="geometry">
            <mxPoint x="474" y="160" as="sourcePoint" />
            <mxPoint x="510" y="210" as="targetPoint" />
          </mxGeometry>
        </mxCell>
        <mxCell id="950wtDZRjI_2q_y0SgnF-4" value="1 játékos" style="rounded=1;whiteSpace=wrap;html=1;" vertex="1" parent="1">
          <mxGeometry x="220" y="210" width="120" height="60" as="geometry" />
        </mxCell>
        <mxCell id="950wtDZRjI_2q_y0SgnF-5" value="2 játékos" style="rounded=1;whiteSpace=wrap;html=1;" vertex="1" parent="1">
          <mxGeometry x="474" y="210" width="120" height="60" as="geometry" />
        </mxCell>
        <mxCell id="950wtDZRjI_2q_y0SgnF-6" value="" style="endArrow=classic;html=1;rounded=0;entryX=0.5;entryY=0;entryDx=0;entryDy=0;exitX=0.125;exitY=0.967;exitDx=0;exitDy=0;exitPerimeter=0;" edge="1" parent="1" source="950wtDZRjI_2q_y0SgnF-4" target="950wtDZRjI_2q_y0SgnF-10">
          <mxGeometry width="50" height="50" relative="1" as="geometry">
            <mxPoint x="230" y="270" as="sourcePoint" />
            <mxPoint x="190" y="340" as="targetPoint" />
          </mxGeometry>
        </mxCell>
        <mxCell id="950wtDZRjI_2q_y0SgnF-7" value="" style="endArrow=classic;html=1;rounded=0;entryX=0.442;entryY=-0.017;entryDx=0;entryDy=0;entryPerimeter=0;exitX=0.667;exitY=1;exitDx=0;exitDy=0;exitPerimeter=0;" edge="1" parent="1" source="950wtDZRjI_2q_y0SgnF-4" target="950wtDZRjI_2q_y0SgnF-11">
          <mxGeometry width="50" height="50" relative="1" as="geometry">
            <mxPoint x="310" y="270" as="sourcePoint" />
            <mxPoint x="330" y="330" as="targetPoint" />
          </mxGeometry>
        </mxCell>
        <mxCell id="950wtDZRjI_2q_y0SgnF-8" value="" style="endArrow=classic;html=1;rounded=0;exitX=0.25;exitY=1;exitDx=0;exitDy=0;" edge="1" parent="1" source="950wtDZRjI_2q_y0SgnF-5" target="950wtDZRjI_2q_y0SgnF-13">
          <mxGeometry width="50" height="50" relative="1" as="geometry">
            <mxPoint x="480" y="270" as="sourcePoint" />
            <mxPoint x="470" y="330" as="targetPoint" />
          </mxGeometry>
        </mxCell>
        <mxCell id="950wtDZRjI_2q_y0SgnF-9" value="" style="endArrow=classic;html=1;rounded=0;entryX=0.583;entryY=-0.05;entryDx=0;entryDy=0;entryPerimeter=0;exitX=0.75;exitY=1;exitDx=0;exitDy=0;" edge="1" parent="1" source="950wtDZRjI_2q_y0SgnF-5" target="950wtDZRjI_2q_y0SgnF-12">
          <mxGeometry width="50" height="50" relative="1" as="geometry">
            <mxPoint x="550" y="270" as="sourcePoint" />
            <mxPoint x="590" y="330" as="targetPoint" />
          </mxGeometry>
        </mxCell>
        <mxCell id="950wtDZRjI_2q_y0SgnF-10" value="bejelentkezés (nem kell nevet beírni)" style="rounded=1;whiteSpace=wrap;html=1;" vertex="1" parent="1">
          <mxGeometry x="70" y="370" width="120" height="60" as="geometry" />
        </mxCell>
        <mxCell id="950wtDZRjI_2q_y0SgnF-11" value="név megadása" style="rounded=1;whiteSpace=wrap;html=1;" vertex="1" parent="1">
          <mxGeometry x="270" y="370" width="120" height="60" as="geometry" />
        </mxCell>
        <mxCell id="950wtDZRjI_2q_y0SgnF-12" value="mindkettő név megadása" style="rounded=1;whiteSpace=wrap;html=1;" vertex="1" parent="1">
          <mxGeometry x="630" y="370" width="120" height="60" as="geometry" />
        </mxCell>
        <mxCell id="950wtDZRjI_2q_y0SgnF-13" value="bejelentkezés (csak a barát/ ellenfél nevét kell megadni)&amp;nbsp;" style="rounded=1;whiteSpace=wrap;html=1;" vertex="1" parent="1">
          <mxGeometry x="420" y="370" width="120" height="60" as="geometry" />
        </mxCell>
        <mxCell id="950wtDZRjI_2q_y0SgnF-14" value="3*3 kockás" style="rounded=1;whiteSpace=wrap;html=1;" vertex="1" parent="1">
          <mxGeometry x="70" y="700" width="120" height="60" as="geometry" />
        </mxCell>
        <mxCell id="950wtDZRjI_2q_y0SgnF-15" value="méret kiválasztása" style="rounded=1;whiteSpace=wrap;html=1;" vertex="1" parent="1">
          <mxGeometry x="354" y="510" width="120" height="60" as="geometry" />
        </mxCell>
        <mxCell id="950wtDZRjI_2q_y0SgnF-16" value="5*5 kockás" style="rounded=1;whiteSpace=wrap;html=1;" vertex="1" parent="1">
          <mxGeometry x="630" y="690" width="120" height="60" as="geometry" />
        </mxCell>
        <mxCell id="950wtDZRjI_2q_y0SgnF-17" value="4*4 kockás" style="rounded=1;whiteSpace=wrap;html=1;" vertex="1" parent="1">
          <mxGeometry x="354" y="690" width="120" height="60" as="geometry" />
        </mxCell>
        <mxCell id="950wtDZRjI_2q_y0SgnF-18" value="" style="endArrow=classic;html=1;rounded=0;entryX=0.25;entryY=0;entryDx=0;entryDy=0;exitX=0.5;exitY=1;exitDx=0;exitDy=0;" edge="1" parent="1" source="950wtDZRjI_2q_y0SgnF-11" target="950wtDZRjI_2q_y0SgnF-15">
          <mxGeometry width="50" height="50" relative="1" as="geometry">
            <mxPoint x="340" y="440" as="sourcePoint" />
            <mxPoint x="370" y="440" as="targetPoint" />
          </mxGeometry>
        </mxCell>
        <mxCell id="950wtDZRjI_2q_y0SgnF-19" value="" style="endArrow=classic;html=1;rounded=0;entryX=0;entryY=0.25;entryDx=0;entryDy=0;exitX=0.942;exitY=0.967;exitDx=0;exitDy=0;exitPerimeter=0;" edge="1" parent="1" source="950wtDZRjI_2q_y0SgnF-10" target="950wtDZRjI_2q_y0SgnF-15">
          <mxGeometry width="50" height="50" relative="1" as="geometry">
            <mxPoint x="130" y="480" as="sourcePoint" />
            <mxPoint x="130" y="500.71067811865476" as="targetPoint" />
          </mxGeometry>
        </mxCell>
        <mxCell id="950wtDZRjI_2q_y0SgnF-20" value="" style="endArrow=classic;html=1;rounded=0;exitX=0.75;exitY=1;exitDx=0;exitDy=0;entryX=0.717;entryY=0;entryDx=0;entryDy=0;entryPerimeter=0;" edge="1" parent="1" source="950wtDZRjI_2q_y0SgnF-13" target="950wtDZRjI_2q_y0SgnF-15">
          <mxGeometry width="50" height="50" relative="1" as="geometry">
            <mxPoint x="497" y="430" as="sourcePoint" />
            <mxPoint x="450" y="508" as="targetPoint" />
          </mxGeometry>
        </mxCell>
        <mxCell id="950wtDZRjI_2q_y0SgnF-21" value="" style="endArrow=classic;html=1;rounded=0;entryX=1;entryY=0.5;entryDx=0;entryDy=0;exitX=0;exitY=1;exitDx=0;exitDy=0;" edge="1" parent="1" source="950wtDZRjI_2q_y0SgnF-12" target="950wtDZRjI_2q_y0SgnF-15">
          <mxGeometry width="50" height="50" relative="1" as="geometry">
            <mxPoint x="500" y="560" as="sourcePoint" />
            <mxPoint x="550" y="510" as="targetPoint" />
          </mxGeometry>
        </mxCell>
        <mxCell id="950wtDZRjI_2q_y0SgnF-22" value="" style="endArrow=classic;html=1;rounded=0;entryX=0.7;entryY=0;entryDx=0;entryDy=0;exitX=0;exitY=1;exitDx=0;exitDy=0;entryPerimeter=0;" edge="1" parent="1" source="950wtDZRjI_2q_y0SgnF-15" target="950wtDZRjI_2q_y0SgnF-14">
          <mxGeometry width="50" height="50" relative="1" as="geometry">
            <mxPoint x="290" y="620" as="sourcePoint" />
            <mxPoint x="340" y="570" as="targetPoint" />
          </mxGeometry>
        </mxCell>
        <mxCell id="950wtDZRjI_2q_y0SgnF-23" value="" style="endArrow=classic;html=1;rounded=0;entryX=0.75;entryY=0;entryDx=0;entryDy=0;exitX=0.5;exitY=1;exitDx=0;exitDy=0;" edge="1" parent="1" source="950wtDZRjI_2q_y0SgnF-15" target="950wtDZRjI_2q_y0SgnF-17">
          <mxGeometry width="50" height="50" relative="1" as="geometry">
            <mxPoint x="390" y="730" as="sourcePoint" />
            <mxPoint x="440" y="680" as="targetPoint" />
          </mxGeometry>
        </mxCell>
        <mxCell id="950wtDZRjI_2q_y0SgnF-24" value="" style="endArrow=classic;html=1;rounded=0;entryX=0.167;entryY=0;entryDx=0;entryDy=0;entryPerimeter=0;exitX=1;exitY=1;exitDx=0;exitDy=0;" edge="1" parent="1" source="950wtDZRjI_2q_y0SgnF-15" target="950wtDZRjI_2q_y0SgnF-16">
          <mxGeometry width="50" height="50" relative="1" as="geometry">
            <mxPoint x="560" y="600" as="sourcePoint" />
            <mxPoint x="610" y="550" as="targetPoint" />
          </mxGeometry>
        </mxCell>
        <mxCell id="950wtDZRjI_2q_y0SgnF-31" style="edgeStyle=orthogonalEdgeStyle;rounded=0;orthogonalLoop=1;jettySize=auto;html=1;" edge="1" parent="1" source="950wtDZRjI_2q_y0SgnF-26">
          <mxGeometry relative="1" as="geometry">
            <mxPoint x="120" y="960" as="targetPoint" />
          </mxGeometry>
        </mxCell>
        <mxCell id="950wtDZRjI_2q_y0SgnF-32" style="edgeStyle=orthogonalEdgeStyle;rounded=0;orthogonalLoop=1;jettySize=auto;html=1;" edge="1" parent="1" source="950wtDZRjI_2q_y0SgnF-26">
          <mxGeometry relative="1" as="geometry">
            <mxPoint x="700" y="960" as="targetPoint" />
          </mxGeometry>
        </mxCell>
        <mxCell id="950wtDZRjI_2q_y0SgnF-26" value="játék indulása" style="rounded=1;whiteSpace=wrap;html=1;" vertex="1" parent="1">
          <mxGeometry x="354" y="850" width="120" height="60" as="geometry" />
        </mxCell>
        <mxCell id="950wtDZRjI_2q_y0SgnF-27" value="" style="endArrow=classic;html=1;rounded=0;exitX=0.833;exitY=1.05;exitDx=0;exitDy=0;exitPerimeter=0;entryX=0;entryY=0.25;entryDx=0;entryDy=0;" edge="1" parent="1" source="950wtDZRjI_2q_y0SgnF-14" target="950wtDZRjI_2q_y0SgnF-26">
          <mxGeometry width="50" height="50" relative="1" as="geometry">
            <mxPoint x="130" y="810" as="sourcePoint" />
            <mxPoint x="340" y="860" as="targetPoint" />
          </mxGeometry>
        </mxCell>
        <mxCell id="950wtDZRjI_2q_y0SgnF-28" value="" style="endArrow=classic;html=1;rounded=0;exitX=0.5;exitY=1;exitDx=0;exitDy=0;" edge="1" parent="1" source="950wtDZRjI_2q_y0SgnF-17" target="950wtDZRjI_2q_y0SgnF-26">
          <mxGeometry width="50" height="50" relative="1" as="geometry">
            <mxPoint x="410" y="800" as="sourcePoint" />
            <mxPoint x="460" y="750" as="targetPoint" />
          </mxGeometry>
        </mxCell>
        <mxCell id="950wtDZRjI_2q_y0SgnF-30" value="" style="endArrow=classic;html=1;rounded=0;entryX=1;entryY=0.25;entryDx=0;entryDy=0;exitX=0.5;exitY=1;exitDx=0;exitDy=0;" edge="1" parent="1" source="950wtDZRjI_2q_y0SgnF-16" target="950wtDZRjI_2q_y0SgnF-26">
          <mxGeometry width="50" height="50" relative="1" as="geometry">
            <mxPoint x="650" y="800" as="sourcePoint" />
            <mxPoint x="700" y="750" as="targetPoint" />
          </mxGeometry>
        </mxCell>
        <mxCell id="950wtDZRjI_2q_y0SgnF-33" value="1 játékos" style="rounded=1;whiteSpace=wrap;html=1;" vertex="1" parent="1">
          <mxGeometry x="60" y="960" width="120" height="60" as="geometry" />
        </mxCell>
        <mxCell id="950wtDZRjI_2q_y0SgnF-34" value="2 játékos" style="rounded=1;whiteSpace=wrap;html=1;" vertex="1" parent="1">
          <mxGeometry x="630" y="960" width="120" height="60" as="geometry" />
        </mxCell>
        <mxCell id="950wtDZRjI_2q_y0SgnF-35" value="" style="endArrow=classic;html=1;rounded=0;exitX=0.5;exitY=1;exitDx=0;exitDy=0;" edge="1" parent="1" source="950wtDZRjI_2q_y0SgnF-33">
          <mxGeometry width="50" height="50" relative="1" as="geometry">
            <mxPoint x="90" y="1090" as="sourcePoint" />
            <mxPoint x="120" y="1100" as="targetPoint" />
          </mxGeometry>
        </mxCell>
        <mxCell id="950wtDZRjI_2q_y0SgnF-36" value="" style="endArrow=classic;html=1;rounded=0;" edge="1" parent="1">
          <mxGeometry width="50" height="50" relative="1" as="geometry">
            <mxPoint x="700" y="1020" as="sourcePoint" />
            <mxPoint x="700" y="1100" as="targetPoint" />
          </mxGeometry>
        </mxCell>
        <mxCell id="950wtDZRjI_2q_y0SgnF-37" value="kirandomolni és kiírni hogy ki kezd" style="rounded=1;whiteSpace=wrap;html=1;" vertex="1" parent="1">
          <mxGeometry x="60" y="1100" width="120" height="60" as="geometry" />
        </mxCell>
        <mxCell id="950wtDZRjI_2q_y0SgnF-38" value="kirandomolni és kiírni hogy ki kezd" style="rounded=1;whiteSpace=wrap;html=1;" vertex="1" parent="1">
          <mxGeometry x="640" y="1100" width="120" height="60" as="geometry" />
        </mxCell>
        <mxCell id="950wtDZRjI_2q_y0SgnF-39" value="játékos 1" style="rounded=1;whiteSpace=wrap;html=1;" vertex="1" parent="1">
          <mxGeometry x="-90" y="1240" width="120" height="60" as="geometry" />
        </mxCell>
        <mxCell id="950wtDZRjI_2q_y0SgnF-40" value="bot" style="rounded=1;whiteSpace=wrap;html=1;" vertex="1" parent="1">
          <mxGeometry x="200" y="1240" width="120" height="60" as="geometry" />
        </mxCell>
        <mxCell id="950wtDZRjI_2q_y0SgnF-41" value="2 játékos" style="rounded=1;whiteSpace=wrap;html=1;" vertex="1" parent="1">
          <mxGeometry x="750" y="1240" width="120" height="60" as="geometry" />
        </mxCell>
        <mxCell id="950wtDZRjI_2q_y0SgnF-42" value="játékos 1" style="rounded=1;whiteSpace=wrap;html=1;" vertex="1" parent="1">
          <mxGeometry x="530" y="1240" width="120" height="60" as="geometry" />
        </mxCell>
        <mxCell id="950wtDZRjI_2q_y0SgnF-43" value="" style="endArrow=classic;html=1;rounded=0;entryX=0.75;entryY=0;entryDx=0;entryDy=0;exitX=0.25;exitY=1;exitDx=0;exitDy=0;" edge="1" parent="1" source="950wtDZRjI_2q_y0SgnF-37" target="950wtDZRjI_2q_y0SgnF-39">
          <mxGeometry width="50" height="50" relative="1" as="geometry">
            <mxPoint x="10" y="1220" as="sourcePoint" />
            <mxPoint x="60" y="1170" as="targetPoint" />
          </mxGeometry>
        </mxCell>
        <mxCell id="950wtDZRjI_2q_y0SgnF-44" value="" style="endArrow=classic;html=1;rounded=0;entryX=0.617;entryY=0;entryDx=0;entryDy=0;entryPerimeter=0;exitX=0.75;exitY=1;exitDx=0;exitDy=0;" edge="1" parent="1" source="950wtDZRjI_2q_y0SgnF-37" target="950wtDZRjI_2q_y0SgnF-40">
          <mxGeometry width="50" height="50" relative="1" as="geometry">
            <mxPoint x="160" y="1220" as="sourcePoint" />
            <mxPoint x="210" y="1170" as="targetPoint" />
          </mxGeometry>
        </mxCell>
        <mxCell id="950wtDZRjI_2q_y0SgnF-45" value="" style="endArrow=classic;html=1;rounded=0;entryX=0.5;entryY=0;entryDx=0;entryDy=0;exitX=0.317;exitY=0.967;exitDx=0;exitDy=0;exitPerimeter=0;" edge="1" parent="1" source="950wtDZRjI_2q_y0SgnF-38" target="950wtDZRjI_2q_y0SgnF-42">
          <mxGeometry width="50" height="50" relative="1" as="geometry">
            <mxPoint x="790" y="1180" as="sourcePoint" />
            <mxPoint x="650" y="1170" as="targetPoint" />
          </mxGeometry>
        </mxCell>
        <mxCell id="950wtDZRjI_2q_y0SgnF-46" value="" style="endArrow=classic;html=1;rounded=0;entryX=0.642;entryY=-0.017;entryDx=0;entryDy=0;entryPerimeter=0;exitX=0.75;exitY=1;exitDx=0;exitDy=0;" edge="1" parent="1" source="950wtDZRjI_2q_y0SgnF-38" target="950wtDZRjI_2q_y0SgnF-41">
          <mxGeometry width="50" height="50" relative="1" as="geometry">
            <mxPoint x="760" y="1230" as="sourcePoint" />
            <mxPoint x="810" y="1180" as="targetPoint" />
          </mxGeometry>
        </mxCell>
        <mxCell id="950wtDZRjI_2q_y0SgnF-47" value="" style="endArrow=classic;html=1;rounded=0;exitX=0.5;exitY=1;exitDx=0;exitDy=0;entryX=0.25;entryY=0;entryDx=0;entryDy=0;" edge="1" parent="1" source="950wtDZRjI_2q_y0SgnF-39" target="950wtDZRjI_2q_y0SgnF-52">
          <mxGeometry width="50" height="50" relative="1" as="geometry">
            <mxPoint x="-20" y="1390" as="sourcePoint" />
            <mxPoint x="90" y="1440" as="targetPoint" />
          </mxGeometry>
        </mxCell>
        <mxCell id="950wtDZRjI_2q_y0SgnF-48" value="" style="endArrow=classic;html=1;rounded=0;exitX=0.592;exitY=0.95;exitDx=0;exitDy=0;exitPerimeter=0;entryX=0.75;entryY=0;entryDx=0;entryDy=0;" edge="1" parent="1" source="950wtDZRjI_2q_y0SgnF-40" target="950wtDZRjI_2q_y0SgnF-52">
          <mxGeometry width="50" height="50" relative="1" as="geometry">
            <mxPoint x="250" y="1400" as="sourcePoint" />
            <mxPoint x="180" y="1440" as="targetPoint" />
          </mxGeometry>
        </mxCell>
        <mxCell id="950wtDZRjI_2q_y0SgnF-49" value="" style="endArrow=classic;html=1;rounded=0;exitX=0.5;exitY=1;exitDx=0;exitDy=0;" edge="1" parent="1" source="950wtDZRjI_2q_y0SgnF-42">
          <mxGeometry width="50" height="50" relative="1" as="geometry">
            <mxPoint x="580" y="1410" as="sourcePoint" />
            <mxPoint x="680" y="1450" as="targetPoint" />
          </mxGeometry>
        </mxCell>
        <mxCell id="950wtDZRjI_2q_y0SgnF-50" value="" style="endArrow=classic;html=1;rounded=0;exitX=0.5;exitY=1;exitDx=0;exitDy=0;" edge="1" parent="1" source="950wtDZRjI_2q_y0SgnF-41">
          <mxGeometry width="50" height="50" relative="1" as="geometry">
            <mxPoint x="810" y="1400" as="sourcePoint" />
            <mxPoint x="750" y="1450" as="targetPoint" />
          </mxGeometry>
        </mxCell>
        <mxCell id="950wtDZRjI_2q_y0SgnF-58" style="edgeStyle=orthogonalEdgeStyle;rounded=0;orthogonalLoop=1;jettySize=auto;html=1;entryX=0;entryY=0.5;entryDx=0;entryDy=0;" edge="1" parent="1" source="950wtDZRjI_2q_y0SgnF-52" target="950wtDZRjI_2q_y0SgnF-39">
          <mxGeometry relative="1" as="geometry" />
        </mxCell>
        <mxCell id="950wtDZRjI_2q_y0SgnF-59" style="edgeStyle=orthogonalEdgeStyle;rounded=0;orthogonalLoop=1;jettySize=auto;html=1;entryX=1;entryY=0.5;entryDx=0;entryDy=0;" edge="1" parent="1" source="950wtDZRjI_2q_y0SgnF-52" target="950wtDZRjI_2q_y0SgnF-40">
          <mxGeometry relative="1" as="geometry" />
        </mxCell>
        <mxCell id="950wtDZRjI_2q_y0SgnF-52" value="a másik fél rak" style="rounded=1;whiteSpace=wrap;html=1;" vertex="1" parent="1">
          <mxGeometry x="70" y="1490" width="120" height="60" as="geometry" />
        </mxCell>
        <mxCell id="950wtDZRjI_2q_y0SgnF-54" style="edgeStyle=orthogonalEdgeStyle;rounded=0;orthogonalLoop=1;jettySize=auto;html=1;entryX=0;entryY=0.5;entryDx=0;entryDy=0;" edge="1" parent="1" source="950wtDZRjI_2q_y0SgnF-53" target="950wtDZRjI_2q_y0SgnF-42">
          <mxGeometry relative="1" as="geometry" />
        </mxCell>
        <mxCell id="950wtDZRjI_2q_y0SgnF-56" style="edgeStyle=orthogonalEdgeStyle;rounded=0;orthogonalLoop=1;jettySize=auto;html=1;exitX=1;exitY=0.5;exitDx=0;exitDy=0;entryX=1;entryY=0.5;entryDx=0;entryDy=0;" edge="1" parent="1" source="950wtDZRjI_2q_y0SgnF-53" target="950wtDZRjI_2q_y0SgnF-41">
          <mxGeometry relative="1" as="geometry" />
        </mxCell>
        <mxCell id="950wtDZRjI_2q_y0SgnF-53" value="a másik ember rak" style="rounded=1;whiteSpace=wrap;html=1;" vertex="1" parent="1">
          <mxGeometry x="660" y="1450" width="120" height="60" as="geometry" />
        </mxCell>
        <mxCell id="950wtDZRjI_2q_y0SgnF-118" style="edgeStyle=orthogonalEdgeStyle;rounded=0;orthogonalLoop=1;jettySize=auto;html=1;entryX=0.408;entryY=0.975;entryDx=0;entryDy=0;entryPerimeter=0;" edge="1" parent="1" source="950wtDZRjI_2q_y0SgnF-60" target="950wtDZRjI_2q_y0SgnF-26">
          <mxGeometry relative="1" as="geometry">
            <mxPoint x="400" y="910" as="targetPoint" />
            <Array as="points">
              <mxPoint x="1600" y="2230" />
              <mxPoint x="1600" y="960" />
              <mxPoint x="1120" y="960" />
              <mxPoint x="1120" y="940" />
              <mxPoint x="400" y="940" />
              <mxPoint x="400" y="910" />
              <mxPoint x="403" y="910" />
            </Array>
          </mxGeometry>
        </mxCell>
        <mxCell id="950wtDZRjI_2q_y0SgnF-60" value="tele van a tábla" style="rounded=1;whiteSpace=wrap;html=1;" vertex="1" parent="1">
          <mxGeometry x="1140" y="2200" width="120" height="60" as="geometry" />
        </mxCell>
        <mxCell id="950wtDZRjI_2q_y0SgnF-61" value="3-as méret" style="rounded=1;whiteSpace=wrap;html=1;" vertex="1" parent="1">
          <mxGeometry x="-20" y="1920" width="120" height="60" as="geometry" />
        </mxCell>
        <mxCell id="950wtDZRjI_2q_y0SgnF-62" value="4-es méret" style="rounded=1;whiteSpace=wrap;html=1;" vertex="1" parent="1">
          <mxGeometry x="294" y="1920" width="120" height="60" as="geometry" />
        </mxCell>
        <mxCell id="950wtDZRjI_2q_y0SgnF-63" value="5-ös méret" style="rounded=1;whiteSpace=wrap;html=1;" vertex="1" parent="1">
          <mxGeometry x="770" y="1920" width="120" height="60" as="geometry" />
        </mxCell>
        <mxCell id="950wtDZRjI_2q_y0SgnF-64" value="&lt;font style=&quot;font-size: 72px;&quot;&gt;Tic-Tac-toe&lt;/font&gt;" style="text;html=1;align=center;verticalAlign=middle;whiteSpace=wrap;rounded=0;" vertex="1" parent="1">
          <mxGeometry x="-370" y="20" width="440" height="160" as="geometry" />
        </mxCell>
        <mxCell id="950wtDZRjI_2q_y0SgnF-72" value="" style="endArrow=classic;html=1;rounded=0;entryX=0.5;entryY=0;entryDx=0;entryDy=0;exitX=0.678;exitY=1.001;exitDx=0;exitDy=0;exitPerimeter=0;" edge="1" parent="1" source="950wtDZRjI_2q_y0SgnF-62" target="950wtDZRjI_2q_y0SgnF-60">
          <mxGeometry width="50" height="50" relative="1" as="geometry">
            <mxPoint x="-150" y="1940" as="sourcePoint" />
            <mxPoint x="90" y="1600" as="targetPoint" />
          </mxGeometry>
        </mxCell>
        <mxCell id="950wtDZRjI_2q_y0SgnF-73" value="" style="endArrow=classic;html=1;rounded=0;entryX=0.5;entryY=0;entryDx=0;entryDy=0;exitX=0.5;exitY=1;exitDx=0;exitDy=0;" edge="1" parent="1" source="950wtDZRjI_2q_y0SgnF-52" target="950wtDZRjI_2q_y0SgnF-61">
          <mxGeometry width="50" height="50" relative="1" as="geometry">
            <mxPoint x="140" y="1840" as="sourcePoint" />
            <mxPoint x="190" y="1790" as="targetPoint" />
          </mxGeometry>
        </mxCell>
        <mxCell id="950wtDZRjI_2q_y0SgnF-74" value="" style="endArrow=classic;html=1;rounded=0;entryX=0.667;entryY=0;entryDx=0;entryDy=0;entryPerimeter=0;exitX=0.396;exitY=1.058;exitDx=0;exitDy=0;exitPerimeter=0;" edge="1" parent="1" source="950wtDZRjI_2q_y0SgnF-53" target="950wtDZRjI_2q_y0SgnF-62">
          <mxGeometry width="50" height="50" relative="1" as="geometry">
            <mxPoint x="710" y="1660" as="sourcePoint" />
            <mxPoint x="760" y="1610" as="targetPoint" />
          </mxGeometry>
        </mxCell>
        <mxCell id="950wtDZRjI_2q_y0SgnF-75" value="" style="endArrow=classic;html=1;rounded=0;entryX=0.5;entryY=0;entryDx=0;entryDy=0;exitX=0.635;exitY=1.058;exitDx=0;exitDy=0;exitPerimeter=0;" edge="1" parent="1" source="950wtDZRjI_2q_y0SgnF-53" target="950wtDZRjI_2q_y0SgnF-63">
          <mxGeometry width="50" height="50" relative="1" as="geometry">
            <mxPoint x="820" y="1680" as="sourcePoint" />
            <mxPoint x="870" y="1630" as="targetPoint" />
          </mxGeometry>
        </mxCell>
        <mxCell id="950wtDZRjI_2q_y0SgnF-79" value="" style="endArrow=classic;html=1;rounded=0;entryX=0.25;entryY=0;entryDx=0;entryDy=0;exitX=0.833;exitY=0.983;exitDx=0;exitDy=0;exitPerimeter=0;" edge="1" parent="1" source="950wtDZRjI_2q_y0SgnF-52" target="950wtDZRjI_2q_y0SgnF-63">
          <mxGeometry width="50" height="50" relative="1" as="geometry">
            <mxPoint x="190" y="1670" as="sourcePoint" />
            <mxPoint x="240" y="1620" as="targetPoint" />
          </mxGeometry>
        </mxCell>
        <mxCell id="950wtDZRjI_2q_y0SgnF-80" value="" style="endArrow=classic;html=1;rounded=0;exitX=0.692;exitY=1.05;exitDx=0;exitDy=0;exitPerimeter=0;" edge="1" parent="1" source="950wtDZRjI_2q_y0SgnF-52">
          <mxGeometry width="50" height="50" relative="1" as="geometry">
            <mxPoint x="200" y="1590" as="sourcePoint" />
            <mxPoint x="346" y="1916" as="targetPoint" />
          </mxGeometry>
        </mxCell>
        <mxCell id="950wtDZRjI_2q_y0SgnF-83" value="" style="endArrow=classic;html=1;rounded=0;entryX=0.75;entryY=0;entryDx=0;entryDy=0;exitX=0.148;exitY=1.004;exitDx=0;exitDy=0;exitPerimeter=0;" edge="1" parent="1" source="950wtDZRjI_2q_y0SgnF-53" target="950wtDZRjI_2q_y0SgnF-61">
          <mxGeometry width="50" height="50" relative="1" as="geometry">
            <mxPoint x="480" y="1590" as="sourcePoint" />
            <mxPoint x="530" y="1540" as="targetPoint" />
          </mxGeometry>
        </mxCell>
        <mxCell id="950wtDZRjI_2q_y0SgnF-85" value="" style="endArrow=classic;html=1;rounded=0;entryX=0;entryY=0.25;entryDx=0;entryDy=0;exitX=0.75;exitY=1;exitDx=0;exitDy=0;" edge="1" parent="1" source="950wtDZRjI_2q_y0SgnF-61" target="950wtDZRjI_2q_y0SgnF-60">
          <mxGeometry width="50" height="50" relative="1" as="geometry">
            <mxPoint x="160" y="2100" as="sourcePoint" />
            <mxPoint x="210" y="2050" as="targetPoint" />
          </mxGeometry>
        </mxCell>
        <mxCell id="950wtDZRjI_2q_y0SgnF-86" value="" style="endArrow=classic;html=1;rounded=0;entryX=0.75;entryY=0;entryDx=0;entryDy=0;exitX=0.32;exitY=1.04;exitDx=0;exitDy=0;exitPerimeter=0;" edge="1" parent="1" source="950wtDZRjI_2q_y0SgnF-63" target="950wtDZRjI_2q_y0SgnF-60">
          <mxGeometry width="50" height="50" relative="1" as="geometry">
            <mxPoint x="670" y="2150" as="sourcePoint" />
            <mxPoint x="720" y="2100" as="targetPoint" />
          </mxGeometry>
        </mxCell>
        <mxCell id="950wtDZRjI_2q_y0SgnF-87" value="van 3 ugyanolyan szimbólum egy sorban, vagy oszlopban vagy átlósan" style="rounded=1;whiteSpace=wrap;html=1;" vertex="1" parent="1">
          <mxGeometry x="-150" y="2190" width="120" height="80" as="geometry" />
        </mxCell>
        <mxCell id="950wtDZRjI_2q_y0SgnF-88" value="van 4 ugyanolyan szimbólum egy sorban, vagy oszlopban, vagy átlósan" style="rounded=1;whiteSpace=wrap;html=1;" vertex="1" parent="1">
          <mxGeometry x="294" y="2200" width="120" height="80" as="geometry" />
        </mxCell>
        <mxCell id="950wtDZRjI_2q_y0SgnF-89" value="van 5 ugyanolyan szimbólum egy sorban, vagy oszlopban, vagy átlósan" style="rounded=1;whiteSpace=wrap;html=1;" vertex="1" parent="1">
          <mxGeometry x="770" y="2200" width="120" height="80" as="geometry" />
        </mxCell>
        <mxCell id="950wtDZRjI_2q_y0SgnF-90" value="" style="endArrow=classic;html=1;rounded=0;entryX=0.5;entryY=0;entryDx=0;entryDy=0;exitX=0.5;exitY=1;exitDx=0;exitDy=0;" edge="1" parent="1" source="950wtDZRjI_2q_y0SgnF-61" target="950wtDZRjI_2q_y0SgnF-87">
          <mxGeometry width="50" height="50" relative="1" as="geometry">
            <mxPoint y="2050" as="sourcePoint" />
            <mxPoint x="50" y="2000" as="targetPoint" />
          </mxGeometry>
        </mxCell>
        <mxCell id="950wtDZRjI_2q_y0SgnF-91" value="" style="endArrow=classic;html=1;rounded=0;entryX=0.5;entryY=0;entryDx=0;entryDy=0;exitX=0.5;exitY=1;exitDx=0;exitDy=0;" edge="1" parent="1" source="950wtDZRjI_2q_y0SgnF-62" target="950wtDZRjI_2q_y0SgnF-88">
          <mxGeometry width="50" height="50" relative="1" as="geometry">
            <mxPoint x="390" y="2040" as="sourcePoint" />
            <mxPoint x="440" y="1990" as="targetPoint" />
          </mxGeometry>
        </mxCell>
        <mxCell id="950wtDZRjI_2q_y0SgnF-92" value="" style="endArrow=classic;html=1;rounded=0;entryX=0.5;entryY=0;entryDx=0;entryDy=0;exitX=0.5;exitY=1;exitDx=0;exitDy=0;" edge="1" parent="1" source="950wtDZRjI_2q_y0SgnF-63" target="950wtDZRjI_2q_y0SgnF-89">
          <mxGeometry width="50" height="50" relative="1" as="geometry">
            <mxPoint x="390" y="2040" as="sourcePoint" />
            <mxPoint x="440" y="1990" as="targetPoint" />
          </mxGeometry>
        </mxCell>
        <mxCell id="950wtDZRjI_2q_y0SgnF-97" value="1 játékos játszma" style="rounded=1;whiteSpace=wrap;html=1;" vertex="1" parent="1">
          <mxGeometry x="160" y="2540" width="120" height="60" as="geometry" />
        </mxCell>
        <mxCell id="950wtDZRjI_2q_y0SgnF-101" value="2 játékos játszma" style="rounded=1;whiteSpace=wrap;html=1;" vertex="1" parent="1">
          <mxGeometry x="630" y="2540" width="120" height="60" as="geometry" />
        </mxCell>
        <mxCell id="950wtDZRjI_2q_y0SgnF-104" value="" style="endArrow=classic;html=1;rounded=0;exitX=0.25;exitY=1;exitDx=0;exitDy=0;entryX=0.5;entryY=0;entryDx=0;entryDy=0;" edge="1" parent="1" source="950wtDZRjI_2q_y0SgnF-88" target="950wtDZRjI_2q_y0SgnF-97">
          <mxGeometry width="50" height="50" relative="1" as="geometry">
            <mxPoint x="-40" y="2410" as="sourcePoint" />
            <mxPoint x="230" y="2540" as="targetPoint" />
          </mxGeometry>
        </mxCell>
        <mxCell id="950wtDZRjI_2q_y0SgnF-105" value="" style="endArrow=classic;html=1;rounded=0;entryX=0.917;entryY=0;entryDx=0;entryDy=0;entryPerimeter=0;exitX=0.25;exitY=1;exitDx=0;exitDy=0;" edge="1" parent="1" source="950wtDZRjI_2q_y0SgnF-89" target="950wtDZRjI_2q_y0SgnF-97">
          <mxGeometry width="50" height="50" relative="1" as="geometry">
            <mxPoint x="330" y="2400" as="sourcePoint" />
            <mxPoint x="380" y="2350" as="targetPoint" />
          </mxGeometry>
        </mxCell>
        <mxCell id="950wtDZRjI_2q_y0SgnF-106" value="" style="endArrow=classic;html=1;rounded=0;entryX=0.633;entryY=-0.058;entryDx=0;entryDy=0;entryPerimeter=0;exitX=0.5;exitY=1;exitDx=0;exitDy=0;" edge="1" parent="1" source="950wtDZRjI_2q_y0SgnF-89" target="950wtDZRjI_2q_y0SgnF-101">
          <mxGeometry width="50" height="50" relative="1" as="geometry">
            <mxPoint x="770" y="2390" as="sourcePoint" />
            <mxPoint x="820" y="2340" as="targetPoint" />
          </mxGeometry>
        </mxCell>
        <mxCell id="950wtDZRjI_2q_y0SgnF-107" value="" style="endArrow=classic;html=1;rounded=0;entryX=0.374;entryY=0.04;entryDx=0;entryDy=0;entryPerimeter=0;exitX=0.32;exitY=1.023;exitDx=0;exitDy=0;exitPerimeter=0;" edge="1" parent="1" source="950wtDZRjI_2q_y0SgnF-87" target="950wtDZRjI_2q_y0SgnF-97">
          <mxGeometry width="50" height="50" relative="1" as="geometry">
            <mxPoint x="30" y="2430" as="sourcePoint" />
            <mxPoint x="80" y="2380" as="targetPoint" />
          </mxGeometry>
        </mxCell>
        <mxCell id="950wtDZRjI_2q_y0SgnF-108" value="" style="endArrow=classic;html=1;rounded=0;entryX=0.25;entryY=0;entryDx=0;entryDy=0;exitX=0.624;exitY=0.993;exitDx=0;exitDy=0;exitPerimeter=0;" edge="1" parent="1" source="950wtDZRjI_2q_y0SgnF-87" target="950wtDZRjI_2q_y0SgnF-101">
          <mxGeometry width="50" height="50" relative="1" as="geometry">
            <mxPoint x="-20" y="2300" as="sourcePoint" />
            <mxPoint x="30" y="2250" as="targetPoint" />
          </mxGeometry>
        </mxCell>
        <mxCell id="950wtDZRjI_2q_y0SgnF-109" value="" style="endArrow=classic;html=1;rounded=0;entryX=0.5;entryY=0;entryDx=0;entryDy=0;exitX=0.5;exitY=1;exitDx=0;exitDy=0;" edge="1" parent="1" source="950wtDZRjI_2q_y0SgnF-88" target="950wtDZRjI_2q_y0SgnF-101">
          <mxGeometry width="50" height="50" relative="1" as="geometry">
            <mxPoint x="650" y="2410" as="sourcePoint" />
            <mxPoint x="700" y="2360" as="targetPoint" />
          </mxGeometry>
        </mxCell>
        <mxCell id="950wtDZRjI_2q_y0SgnF-110" value="kiírni hogy a bot nyert" style="rounded=1;whiteSpace=wrap;html=1;" vertex="1" parent="1">
          <mxGeometry y="2760" width="120" height="60" as="geometry" />
        </mxCell>
        <mxCell id="950wtDZRjI_2q_y0SgnF-111" value="kiírni hogy 2. játékos nyert" style="rounded=1;whiteSpace=wrap;html=1;" vertex="1" parent="1">
          <mxGeometry x="760" y="2760" width="120" height="60" as="geometry" />
        </mxCell>
        <mxCell id="950wtDZRjI_2q_y0SgnF-112" value="kiírni hogy a játékos nyert" style="rounded=1;whiteSpace=wrap;html=1;" vertex="1" parent="1">
          <mxGeometry x="260" y="2760" width="120" height="60" as="geometry" />
        </mxCell>
        <mxCell id="950wtDZRjI_2q_y0SgnF-113" value="kiírni hogy 1. játékos nyert" style="rounded=1;whiteSpace=wrap;html=1;" vertex="1" parent="1">
          <mxGeometry x="520" y="2760" width="120" height="60" as="geometry" />
        </mxCell>
        <mxCell id="950wtDZRjI_2q_y0SgnF-114" value="" style="endArrow=classic;html=1;rounded=0;entryX=0.5;entryY=0;entryDx=0;entryDy=0;exitX=0.317;exitY=1.05;exitDx=0;exitDy=0;exitPerimeter=0;" edge="1" parent="1" source="950wtDZRjI_2q_y0SgnF-97" target="950wtDZRjI_2q_y0SgnF-110">
          <mxGeometry width="50" height="50" relative="1" as="geometry">
            <mxPoint x="30" y="2700" as="sourcePoint" />
            <mxPoint x="80" y="2650" as="targetPoint" />
          </mxGeometry>
        </mxCell>
        <mxCell id="950wtDZRjI_2q_y0SgnF-115" value="" style="endArrow=classic;html=1;rounded=0;entryX=0.5;entryY=0;entryDx=0;entryDy=0;exitX=0.5;exitY=1;exitDx=0;exitDy=0;" edge="1" parent="1" source="950wtDZRjI_2q_y0SgnF-97" target="950wtDZRjI_2q_y0SgnF-112">
          <mxGeometry width="50" height="50" relative="1" as="geometry">
            <mxPoint x="270" y="2710" as="sourcePoint" />
            <mxPoint x="320" y="2660" as="targetPoint" />
          </mxGeometry>
        </mxCell>
        <mxCell id="950wtDZRjI_2q_y0SgnF-116" value="" style="endArrow=classic;html=1;rounded=0;entryX=0.5;entryY=0;entryDx=0;entryDy=0;exitX=0.5;exitY=1;exitDx=0;exitDy=0;" edge="1" parent="1" source="950wtDZRjI_2q_y0SgnF-101" target="950wtDZRjI_2q_y0SgnF-113">
          <mxGeometry width="50" height="50" relative="1" as="geometry">
            <mxPoint x="580" y="2690" as="sourcePoint" />
            <mxPoint x="630" y="2640" as="targetPoint" />
          </mxGeometry>
        </mxCell>
        <mxCell id="950wtDZRjI_2q_y0SgnF-117" value="" style="endArrow=classic;html=1;rounded=0;exitX=0.75;exitY=1;exitDx=0;exitDy=0;entryX=0.558;entryY=0;entryDx=0;entryDy=0;entryPerimeter=0;" edge="1" parent="1" source="950wtDZRjI_2q_y0SgnF-101" target="950wtDZRjI_2q_y0SgnF-111">
          <mxGeometry width="50" height="50" relative="1" as="geometry">
            <mxPoint x="777" y="2670" as="sourcePoint" />
            <mxPoint x="827" y="2620" as="targetPoint" />
          </mxGeometry>
        </mxCell>
        <mxCell id="950wtDZRjI_2q_y0SgnF-119" value="játszma vége" style="rounded=1;whiteSpace=wrap;html=1;" vertex="1" parent="1">
          <mxGeometry x="420" y="3010" width="120" height="60" as="geometry" />
        </mxCell>
        <mxCell id="950wtDZRjI_2q_y0SgnF-121" value="" style="endArrow=classic;html=1;rounded=0;entryX=0.142;entryY=-0.033;entryDx=0;entryDy=0;entryPerimeter=0;exitX=0.75;exitY=1;exitDx=0;exitDy=0;" edge="1" parent="1" source="950wtDZRjI_2q_y0SgnF-110" target="950wtDZRjI_2q_y0SgnF-119">
          <mxGeometry width="50" height="50" relative="1" as="geometry">
            <mxPoint x="120" y="2940" as="sourcePoint" />
            <mxPoint x="170" y="2890" as="targetPoint" />
          </mxGeometry>
        </mxCell>
        <mxCell id="950wtDZRjI_2q_y0SgnF-122" value="" style="endArrow=classic;html=1;rounded=0;entryX=0.417;entryY=0;entryDx=0;entryDy=0;entryPerimeter=0;exitX=0.858;exitY=1.036;exitDx=0;exitDy=0;exitPerimeter=0;" edge="1" parent="1" source="950wtDZRjI_2q_y0SgnF-112" target="950wtDZRjI_2q_y0SgnF-119">
          <mxGeometry width="50" height="50" relative="1" as="geometry">
            <mxPoint x="360" y="3000" as="sourcePoint" />
            <mxPoint x="410" y="2960" as="targetPoint" />
          </mxGeometry>
        </mxCell>
        <mxCell id="950wtDZRjI_2q_y0SgnF-123" value="" style="endArrow=classic;html=1;rounded=0;entryX=0.608;entryY=-0.022;entryDx=0;entryDy=0;entryPerimeter=0;exitX=0.5;exitY=1;exitDx=0;exitDy=0;" edge="1" parent="1" source="950wtDZRjI_2q_y0SgnF-113" target="950wtDZRjI_2q_y0SgnF-119">
          <mxGeometry width="50" height="50" relative="1" as="geometry">
            <mxPoint x="540" y="2940" as="sourcePoint" />
            <mxPoint x="590" y="2890" as="targetPoint" />
          </mxGeometry>
        </mxCell>
        <mxCell id="950wtDZRjI_2q_y0SgnF-124" value="" style="endArrow=classic;html=1;rounded=0;exitX=0.463;exitY=0.969;exitDx=0;exitDy=0;exitPerimeter=0;entryX=0.934;entryY=-0.011;entryDx=0;entryDy=0;entryPerimeter=0;" edge="1" parent="1" source="950wtDZRjI_2q_y0SgnF-111" target="950wtDZRjI_2q_y0SgnF-119">
          <mxGeometry width="50" height="50" relative="1" as="geometry">
            <mxPoint x="630" y="2960" as="sourcePoint" />
            <mxPoint x="680" y="2910" as="targetPoint" />
          </mxGeometry>
        </mxCell>
        <mxCell id="950wtDZRjI_2q_y0SgnF-125" value="elég" style="rounded=1;whiteSpace=wrap;html=1;" vertex="1" parent="1">
          <mxGeometry x="560" y="3160" width="120" height="60" as="geometry" />
        </mxCell>
        <mxCell id="950wtDZRjI_2q_y0SgnF-126" value="újra" style="rounded=1;whiteSpace=wrap;html=1;" vertex="1" parent="1">
          <mxGeometry x="290" y="3160" width="120" height="60" as="geometry" />
        </mxCell>
        <mxCell id="950wtDZRjI_2q_y0SgnF-127" value="" style="endArrow=classic;html=1;rounded=0;entryX=0.665;entryY=0.048;entryDx=0;entryDy=0;entryPerimeter=0;exitX=0.917;exitY=1;exitDx=0;exitDy=0;exitPerimeter=0;" edge="1" parent="1" source="950wtDZRjI_2q_y0SgnF-119" target="950wtDZRjI_2q_y0SgnF-125">
          <mxGeometry width="50" height="50" relative="1" as="geometry">
            <mxPoint x="590" y="3150" as="sourcePoint" />
            <mxPoint x="640" y="3100" as="targetPoint" />
          </mxGeometry>
        </mxCell>
        <mxCell id="950wtDZRjI_2q_y0SgnF-128" value="" style="endArrow=classic;html=1;rounded=0;entryX=0.43;entryY=0.024;entryDx=0;entryDy=0;entryPerimeter=0;exitX=0.25;exitY=1;exitDx=0;exitDy=0;" edge="1" parent="1" source="950wtDZRjI_2q_y0SgnF-119" target="950wtDZRjI_2q_y0SgnF-126">
          <mxGeometry width="50" height="50" relative="1" as="geometry">
            <mxPoint x="600" y="3120" as="sourcePoint" />
            <mxPoint x="650" y="3070" as="targetPoint" />
          </mxGeometry>
        </mxCell>
        <mxCell id="950wtDZRjI_2q_y0SgnF-129" value="" style="endArrow=classic;html=1;rounded=0;exitX=0;exitY=0.5;exitDx=0;exitDy=0;" edge="1" parent="1" source="950wtDZRjI_2q_y0SgnF-126">
          <mxGeometry width="50" height="50" relative="1" as="geometry">
            <mxPoint x="-350" y="3190" as="sourcePoint" />
            <mxPoint x="-510" y="3190" as="targetPoint" />
          </mxGeometry>
        </mxCell>
        <mxCell id="950wtDZRjI_2q_y0SgnF-130" value="" style="endArrow=classic;html=1;rounded=0;" edge="1" parent="1">
          <mxGeometry width="50" height="50" relative="1" as="geometry">
            <mxPoint x="-500" y="3190" as="sourcePoint" />
            <mxPoint x="-500" y="550" as="targetPoint" />
          </mxGeometry>
        </mxCell>
        <mxCell id="950wtDZRjI_2q_y0SgnF-131" value="" style="endArrow=classic;html=1;rounded=0;entryX=0.014;entryY=0.871;entryDx=0;entryDy=0;entryPerimeter=0;" edge="1" parent="1" target="950wtDZRjI_2q_y0SgnF-15">
          <mxGeometry width="50" height="50" relative="1" as="geometry">
            <mxPoint x="-500" y="562" as="sourcePoint" />
            <mxPoint x="-340" y="520" as="targetPoint" />
          </mxGeometry>
        </mxCell>
        <mxCell id="950wtDZRjI_2q_y0SgnF-132" value="" style="endArrow=classic;html=1;rounded=0;exitX=1;exitY=0.5;exitDx=0;exitDy=0;" edge="1" parent="1" source="950wtDZRjI_2q_y0SgnF-125">
          <mxGeometry width="50" height="50" relative="1" as="geometry">
            <mxPoint x="890" y="3260" as="sourcePoint" />
            <mxPoint x="1440" y="3190" as="targetPoint" />
          </mxGeometry>
        </mxCell>
        <mxCell id="950wtDZRjI_2q_y0SgnF-133" value="" style="endArrow=classic;html=1;rounded=0;" edge="1" parent="1">
          <mxGeometry width="50" height="50" relative="1" as="geometry">
            <mxPoint x="1430" y="3190" as="sourcePoint" />
            <mxPoint x="1420" y="110" as="targetPoint" />
          </mxGeometry>
        </mxCell>
        <mxCell id="950wtDZRjI_2q_y0SgnF-134" value="" style="endArrow=classic;html=1;rounded=0;entryX=1.027;entryY=0.642;entryDx=0;entryDy=0;entryPerimeter=0;" edge="1" parent="1" target="950wtDZRjI_2q_y0SgnF-1">
          <mxGeometry width="50" height="50" relative="1" as="geometry">
            <mxPoint x="1420" y="120" as="sourcePoint" />
            <mxPoint x="1150" y="70" as="targetPoint" />
          </mxGeometry>
        </mxCell>
      </root>
    </mxGraphModel>
  </diagram>
</mxfile>
